<svg xmlns="http://www.w3.org/2000/svg" width="16.072" height="16.009" viewBox="0 0 16.072 16.009">
  <g id="call-doctor-mn_hv" transform="translate(0.011 0)">
    <path id="Path_4649" data-name="Path 4649" d="M9.178,10.529,8.119,11.854A11.187,11.187,0,0,1,4.146,7.881L5.471,6.822a.9.9,0,0,0,.26-1.068L4.524,3.036A.9.9,0,0,0,3.475,2.53l-2.3.6a.9.9,0,0,0-.668,1A13.35,13.35,0,0,0,11.874,15.491a.9.9,0,0,0,1-.668l.6-2.3a.9.9,0,0,0-.506-1.048l-2.722-1.2a.9.9,0,0,0-1.068.259Z" fill="none" stroke="#fff" stroke-linecap="round" stroke-linejoin="round" stroke-width="1"/>
    <path id="Path_4650" data-name="Path 4650" d="M12,.5A3.495,3.495,0,0,0,8.835,5.488L8.5,7.5l2.012-.335A3.5,3.5,0,1,0,12,.5Z" fill="none" stroke="#fff" stroke-linecap="round" stroke-linejoin="round" stroke-width="1"/>
  </g>
</svg>
