<svg xmlns="http://www.w3.org/2000/svg" width="32.016" height="32" viewBox="0 0 32.016 32">
  <g id="call-doctorr" transform="translate(0)">
    <path id="Path_5495" data-name="Path 5495" d="M20.028,20.528l-2.445,3.057a25.8,25.8,0,0,1-9.168-9.168l3.057-2.445a2.079,2.079,0,0,0,.6-2.464L9.286,3.235A2.076,2.076,0,0,0,6.865,2.067l-5.3,1.376A2.088,2.088,0,0,0,.02,5.75,30.815,30.815,0,0,0,26.25,31.98a2.088,2.088,0,0,0,2.306-1.542l1.376-5.3a2.077,2.077,0,0,0-1.167-2.419L22.492,19.93a2.078,2.078,0,0,0-2.464.6Z" fill="#fff"/>
    <path id="Path_5496" data-name="Path 5496" d="M25,0a6.987,6.987,0,0,0-6.329,9.975L18,14l4.025-.671A7,7,0,1,0,25,0Zm3,8H26v2H24V8H22V6h2V4h2V6h2Z" fill="#fff"/>
  </g>
</svg>
