<svg xmlns="http://www.w3.org/2000/svg" width="12.138" height="16.007" viewBox="0 0 12.138 16.007">
  <g id="doctor" transform="translate(0.567 0.5)">
    <path id="Path_4660" data-name="Path 4660" d="M13.5,6.5V10A5.5,5.5,0,0,1,8,15.5H8A5.5,5.5,0,0,1,2.5,10V6.5" transform="translate(-2.5 -0.493)" fill="none" stroke="#232323" stroke-linecap="round" stroke-linejoin="round" stroke-width="1"/>
    <path id="Path_4661" data-name="Path 4661" d="M13.4,11A16.108,16.108,0,0,0,8,9.5,16.108,16.108,0,0,0,2.6,11" transform="translate(-2.5 -0.493)" fill="none" stroke="#232323" stroke-linecap="round" stroke-linejoin="round" stroke-width="1"/>
    <line id="Line_26" data-name="Line 26" x2="3" transform="translate(4.181 11)" fill="none" stroke="#232323" stroke-linecap="round" stroke-linejoin="round" stroke-width="1"/>
    <path id="Path_4662" data-name="Path 4662" d="M13.5,1.5A13.267,13.267,0,0,0,8,.5a13.267,13.267,0,0,0-5.5,1v5A13.267,13.267,0,0,1,8,5.5a13.267,13.267,0,0,1,5.5,1Z" transform="translate(-2.5 -0.493)" fill="none" stroke="#232323" stroke-linecap="round" stroke-linejoin="round" stroke-width="1"/>
  </g>
</svg>
