<svg xmlns="http://www.w3.org/2000/svg" width="32" height="31.992" viewBox="0 0 32 31.992">
  <g id="doctorr" transform="translate(0 -0.008)">
    <path id="Path_5490" data-name="Path 5490" d="M28.855,22.065l-5.286-2.1a10.946,10.946,0,0,1-15.146-.007L3.143,22.07A5,5,0,0,0,0,26.708V31a1,1,0,0,0,1,1H31a1,1,0,0,0,1-1V26.708A4.976,4.976,0,0,0,28.855,22.065ZM26,28H19V26h7Z" fill="#fff"/>
    <path id="Path_5491" data-name="Path 5491" d="M24.364,1.575a23.1,23.1,0,0,0-16.728,0A1,1,0,0,0,7,2.507V12a9,9,0,0,0,18,0V2.507a1,1,0,0,0-.636-.932ZM23,12a6.947,6.947,0,0,1-.292,1.988A14.806,14.806,0,0,0,16,12a14.806,14.806,0,0,0-6.708,1.988A6.947,6.947,0,0,1,9,12V9.224a21.066,21.066,0,0,1,14,0Zm-7,7a6.994,6.994,0,0,1-5.866-3.193A13.2,13.2,0,0,1,16,14a13.2,13.2,0,0,1,5.866,1.807A6.994,6.994,0,0,1,16,19Z" fill="#fff"/>
  </g>
</svg>
