<svg xmlns="http://www.w3.org/2000/svg" width="29" height="32" viewBox="0 0 29 32">
  <g id="height" transform="translate(-1)">
    <path id="Path_5492" data-name="Path 5492" d="M14,11H2a.945.945,0,0,0-1,1v8a.908.908,0,0,0,.3.7L4,23.4V31a.945.945,0,0,0,1,1h6a.945.945,0,0,0,1-1V23.4l2.7-2.7A.908.908,0,0,0,15,20V12A.945.945,0,0,0,14,11Z" fill="#fff"/>
    <path id="Path_5493" data-name="Path 5493" d="M8,10a4.951,4.951,0,0,0,5-5A4.951,4.951,0,0,0,8,0,4.951,4.951,0,0,0,3,5,4.951,4.951,0,0,0,8,10Z" fill="#fff"/>
    <path id="Path_5494" data-name="Path 5494" d="M29,0H19a.945.945,0,0,0-1,1V5h4a.945.945,0,0,1,1,1,.945.945,0,0,1-1,1H18v3h4a.945.945,0,0,1,1,1,.945.945,0,0,1-1,1H18v3h3a1,1,0,0,1,0,2H18v3h4a1,1,0,0,1,0,2H18v3h3a1,1,0,0,1,0,2H18v4a.945.945,0,0,0,1,1H29a.945.945,0,0,0,1-1V1A.945.945,0,0,0,29,0Z" fill="#fff"/>
  </g>
</svg>
