<svg xmlns="http://www.w3.org/2000/svg" xmlns:xlink="http://www.w3.org/1999/xlink" viewBox="0 0 723.95 108.49"><defs><style>.cls-1{isolation:isolate;}.cls-2{fill:#43952c;}.cls-3{fill:#007cbf;}.cls-4{fill:#0087cc;}.cls-5,.cls-7,.cls-8{mix-blend-mode:multiply;}.cls-5{fill:url(#linear-gradient);}.cls-6{fill:#4ead33;}.cls-7{fill:url(#linear-gradient-2);}.cls-8{fill:url(#linear-gradient-3);}</style><linearGradient id="linear-gradient" x1="3321.2" y1="242.5" x2="3315.28" y2="263.52" gradientTransform="translate(-209.85 3333.28) rotate(-90)" gradientUnits="userSpaceOnUse"><stop offset="0" stop-color="#fff"/><stop offset="1" stop-color="#d6d6d6"/></linearGradient><linearGradient id="linear-gradient-2" x1="3072.26" y1="33.33" x2="3064.85" y2="59.62" gradientTransform="matrix(-1, 0, 0, 1, 3088.55, 0)" xlink:href="#linear-gradient"/><linearGradient id="linear-gradient-3" x1="-45.59" y1="201.71" x2="-53.03" y2="228.11" gradientTransform="matrix(1, 0, 0, -1, 134.49, 280.83)" xlink:href="#linear-gradient"/></defs><g class="cls-1"><g id="Layer_2" data-name="Layer 2"><g id="Layer_1-2" data-name="Layer 1"><path class="cls-2" d="M120.72,66.82a13.92,13.92,0,0,1,4.94.89,12,12,0,0,1,4.25,2.65,13,13,0,0,1,3,4.4,17.33,17.33,0,0,1,0,12.15,13.15,13.15,0,0,1-3,4.4A12.5,12.5,0,0,1,125.6,94a14.1,14.1,0,0,1-5,.9H119c-.68,0-1.28-.06-1.83-.1s-.8-.14-1.14-.22a5.63,5.63,0,0,1-1-.34,4.28,4.28,0,0,1-2.34-2,6,6,0,0,1-.63-1.8,11.23,11.23,0,0,1-.23-2.4l.08-14.19a9,9,0,0,1,.82-4.2,4.43,4.43,0,0,1,2.36-2.1,7.49,7.49,0,0,1,2.21-.51,14.22,14.22,0,0,1,1.8-.13C119.67,66.82,120.25,66.82,120.72,66.82Zm0,24.69a8.58,8.58,0,0,0,3-.53,6.88,6.88,0,0,0,2.58-1.76,9.48,9.48,0,0,0,1.87-3.28,15.29,15.29,0,0,0,.71-5.1,15.38,15.38,0,0,0-.71-5.12,9.43,9.43,0,0,0-1.87-3.27,6.52,6.52,0,0,0-2.58-1.75,9.3,9.3,0,0,0-3-.5H119.4a4.41,4.41,0,0,0-1.33.18,2.41,2.41,0,0,0-1,.56,1.57,1.57,0,0,0-.44,1.18V89.57a1.59,1.59,0,0,0,.44,1.2,2.64,2.64,0,0,0,1,.57,4.75,4.75,0,0,0,1.33.17Z"/><path class="cls-2" d="M141.63,90.68c0,.82,0,1.46,0,1.95s0,.87.05,1.15.05.55.09.71a5.78,5.78,0,0,1-3.66-1,4.08,4.08,0,0,1-1.24-3.36V73.52a6.48,6.48,0,0,1,.67-3.11,5.16,5.16,0,0,1,1.8-2,7.36,7.36,0,0,1,2.74-1.09,23.38,23.38,0,0,1,3.46-.46,12.35,12.35,0,0,1,2.54.11,11.81,11.81,0,0,1,2.71.62,13.56,13.56,0,0,1,2.55,1.15,8.78,8.78,0,0,1,2.1,1.74,8.65,8.65,0,0,1,1.44,2.39,6.81,6.81,0,0,1,.45,3,7.07,7.07,0,0,1-1.47,4.12,7.51,7.51,0,0,1-4,2.59,3.93,3.93,0,0,1,1.51,1,7.09,7.09,0,0,1,1.09,1.67c.33.63.66,1.34,1,2.1s.68,1.53,1.07,2.29a10.64,10.64,0,0,0,.92,1.65c.34.47.66.89,1,1.27a5.64,5.64,0,0,0,1,1.09,4.63,4.63,0,0,1-.79.59,4.23,4.23,0,0,1-1,.32,4.08,4.08,0,0,1-1.4,0,4.6,4.6,0,0,1-1.71-.56A5.83,5.83,0,0,1,153,92.6a15.24,15.24,0,0,1-1.64-2.39c-.6-1-1.24-2.24-2-3.72a5,5,0,0,0-1.59-1.9,7.17,7.17,0,0,0-2.31-1l-.43-.13a2.6,2.6,0,0,1-.4-.1c-.18,0-.43-.08-.75-.14l-1-.17c-.39-.1-.8-.16-1.19-.26Zm3.92-20a7.06,7.06,0,0,0-1.93.41,3.55,3.55,0,0,0-1.19.72,2.23,2.23,0,0,0-.65.91,2.81,2.81,0,0,0-.19,1v1.35c0,.56,0,1.11,0,1.7s0,1.1,0,1.6v1c.6.14,1.19.24,1.81.36s1.08.14,1.7.21A16.3,16.3,0,0,0,147,80a6.58,6.58,0,0,0,3.86-1,4.31,4.31,0,0,0,1.67-3.21,4.25,4.25,0,0,0-.42-2.49,4.47,4.47,0,0,0-1.61-1.65,7.69,7.69,0,0,0-2.31-.87A9.18,9.18,0,0,0,145.55,70.67Z"/><path class="cls-2" d="M166.45,93.58a2.36,2.36,0,0,1-1,1,2.71,2.71,0,0,1-1.28.35,2.05,2.05,0,0,1-1.13-.31,2.36,2.36,0,0,1-1.24-2.16,2.94,2.94,0,0,1,.35-1.34,2.63,2.63,0,0,1,1-1,2.47,2.47,0,0,1,1.26-.36,2,2,0,0,1,1.12.32,2,2,0,0,1,.91.91,2.71,2.71,0,0,1,.3,1.25A2.8,2.8,0,0,1,166.45,93.58Z"/><path class="cls-2" d="M200.55,90.68c0,.79,0,1.43,0,1.92s0,.9,0,1.18.05.55.08.71a5.79,5.79,0,0,1-3.63-1,4,4,0,0,1-1.29-3.36L196,71.8c-.73,2.14-1.42,4.1-2.1,5.92-.28.8-.57,1.6-.87,2.43s-.59,1.6-.85,2.32-.54,1.41-.74,2L190.84,86a3.72,3.72,0,0,1-1.5,1.78,4.08,4.08,0,0,1-1.7.57,4.66,4.66,0,0,1-2-.27l-6-16.29.16,18.88c0,.79,0,1.43,0,1.92s0,.9,0,1.18.06.55.08.71a5.88,5.88,0,0,1-3.67-1,4.08,4.08,0,0,1-1.26-3.36V67.54l.16-.09a2.54,2.54,0,0,0,.53-.13l.61-.06a4.53,4.53,0,0,1,.76,0,7.55,7.55,0,0,1,2.33.32,5.8,5.8,0,0,1,2,1,8,8,0,0,1,1.77,2,16.17,16.17,0,0,1,1.52,3.09c0,.09.1.32.21.62s.25.69.4,1.14.32.93.5,1.45.39,1.06.58,1.6c.41,1.27.9,2.67,1.41,4.21l3.06-9a17.47,17.47,0,0,1,1.51-3.09,8.84,8.84,0,0,1,1.77-2,6,6,0,0,1,2-1,7.51,7.51,0,0,1,2.33-.32,4.29,4.29,0,0,1,.74,0l.61.06a2.85,2.85,0,0,0,.55.13l.14.09Z"/><path class="cls-2" d="M216.89,66.78a13.83,13.83,0,0,1,5,.91,12.24,12.24,0,0,1,4.24,2.67,12.68,12.68,0,0,1,3,4.36,17.21,17.21,0,0,1,0,12.16,12.8,12.8,0,0,1-3,4.41A12.15,12.15,0,0,1,221.85,94a14.09,14.09,0,0,1-9.91,0,12.43,12.43,0,0,1-4.24-2.69,12.94,12.94,0,0,1-3-4.41,17.5,17.5,0,0,1,0-12.16,12.82,12.82,0,0,1,3-4.36,12.52,12.52,0,0,1,4.24-2.67A13.74,13.74,0,0,1,216.89,66.78Zm0,24.73a7.53,7.53,0,0,0,3-.62,7.68,7.68,0,0,0,2.63-2,10.46,10.46,0,0,0,1.86-3.35,16.83,16.83,0,0,0,0-9.54,9.74,9.74,0,0,0-1.86-3.29,7.71,7.71,0,0,0-2.63-1.93,7.4,7.4,0,0,0-5.93,0,7.71,7.71,0,0,0-2.63,1.93A9.74,9.74,0,0,0,209.44,76a16.83,16.83,0,0,0,0,9.54,10.46,10.46,0,0,0,1.86,3.35,7.68,7.68,0,0,0,2.63,2A7.52,7.52,0,0,0,216.89,91.51Z"/><path class="cls-2" d="M248.87,71.62a4.19,4.19,0,0,1,1.23-3.4,5.56,5.56,0,0,1,3.63-1,6.7,6.7,0,0,0-.1.74c0,.27,0,.67,0,1.16s0,1.11,0,1.9l0,19.66c0,.82,0,1.46,0,1.95s0,.87.06,1.15a3.63,3.63,0,0,0,.07.71,5.75,5.75,0,0,1-3.65-1,4.08,4.08,0,0,1-1.25-3.36V81.75H237.84v8.93c0,.82,0,1.46,0,1.95a10.34,10.34,0,0,0,.07,1.15,6.44,6.44,0,0,0,.07.71,5.89,5.89,0,0,1-3.68-1,4.06,4.06,0,0,1-1.27-3.36l.1-18.51a4.29,4.29,0,0,1,1.21-3.4,5.64,5.64,0,0,1,3.64-1c0,.17,0,.44-.07.74a10.22,10.22,0,0,0-.07,1.16c0,.47,0,1.11,0,1.9v6.84h10.94Z"/><path class="cls-2" d="M281.34,92.3c.1.25.22.52.31.74a5.75,5.75,0,0,1,.27.66,6.15,6.15,0,0,1,.28.71,5.87,5.87,0,0,1-2.2.2,4.47,4.47,0,0,1-1.82-.56,3.14,3.14,0,0,1-1.43-1.72c-.15-.37-.43-1.07-.84-2.16s-.9-2.33-1.47-3.77h-11c-.59,1.44-1.07,2.7-1.48,3.77s-.69,1.79-.86,2.16a3.24,3.24,0,0,1-1.44,1.72,4.43,4.43,0,0,1-1.79.56,5.87,5.87,0,0,1-2.21-.2,3.88,3.88,0,0,1,.28-.71l.24-.66c.1-.22.21-.49.35-.74.18-.48.49-1.29,1-2.44s1-2.48,1.57-4,1.21-3,1.88-4.71,1.28-3.21,1.87-4.71,1.1-2.79,1.56-3.94.79-1.94,1-2.4a7.15,7.15,0,0,1,.92-1.76,4.11,4.11,0,0,1,.95-1,1.89,1.89,0,0,1,.91-.45,2.73,2.73,0,0,1,.82-.11,2.78,2.78,0,0,1,.84.11,1.91,1.91,0,0,1,.9.45,5.06,5.06,0,0,1,1,1,7.52,7.52,0,0,1,.91,1.76l.94,2.4,1.58,3.94q.88,2.25,1.88,4.71l1.89,4.71c.59,1.49,1.13,2.81,1.58,4S281.16,91.82,281.34,92.3ZM273,82.52c-.54-1.31-1-2.58-1.53-3.82s-.9-2.36-1.27-3.36c-.47-1.16-.89-2.25-1.25-3.3-.42,1-.84,2.14-1.27,3.3-.39,1-.82,2.11-1.29,3.36s-.94,2.51-1.48,3.82Z"/><path class="cls-2" d="M309.64,90.68c0,.79,0,1.43,0,1.92s0,.9.06,1.18.05.55.08.71a5.82,5.82,0,0,1-3.64-1,4,4,0,0,1-1.29-3.36l.23-18.33c-.72,2.14-1.42,4.1-2.1,5.92-.29.8-.57,1.6-.85,2.43s-.6,1.6-.88,2.32-.51,1.41-.75,2-.44,1.13-.62,1.52a3.53,3.53,0,0,1-1.47,1.78,4.26,4.26,0,0,1-1.71.57,4.75,4.75,0,0,1-2-.27l-6-16.29.16,18.88c0,.79,0,1.43,0,1.92a8.94,8.94,0,0,0,.06,1.18,6,6,0,0,0,.08.71,5.93,5.93,0,0,1-3.68-1,4.05,4.05,0,0,1-1.25-3.36V67.54l.15-.09a3.32,3.32,0,0,0,.56-.13l.59-.06a4.42,4.42,0,0,1,.77,0,7.77,7.77,0,0,1,2.33.32,6.36,6.36,0,0,1,2,1,8.11,8.11,0,0,1,1.75,2,15.08,15.08,0,0,1,1.52,3.09,4,4,0,0,0,.22.62l.4,1.14c.15.44.32.93.51,1.45s.35,1.06.52,1.6c.46,1.27.92,2.67,1.46,4.21l3.06-9a15.09,15.09,0,0,1,1.51-3.09,8,8,0,0,1,1.77-2,5.88,5.88,0,0,1,2-1,7.68,7.68,0,0,1,2.33-.32,4.53,4.53,0,0,1,.76,0l.61.06a2.4,2.4,0,0,0,.53.13l.16.09Z"/><path class="cls-2" d="M338.76,90.68c0,.79,0,1.43,0,1.92s0,.9.08,1.18a7,7,0,0,0,.06.71,5.77,5.77,0,0,1-3.63-1A4,4,0,0,1,334,90.13l.22-18.33c-.71,2.14-1.42,4.1-2.08,5.92-.29.8-.59,1.6-.88,2.43s-.58,1.6-.85,2.32l-.76,2c-.23.63-.44,1.13-.61,1.52a3.7,3.7,0,0,1-1.48,1.78,4.3,4.3,0,0,1-1.72.57,4.7,4.7,0,0,1-2-.27l-6-16.29.16,18.88c0,.79,0,1.43,0,1.92s0,.9,0,1.18a4.88,4.88,0,0,0,.11.71,5.9,5.9,0,0,1-3.69-1,4.08,4.08,0,0,1-1.25-3.36V67.54l.14-.09a2.69,2.69,0,0,0,.55-.13l.61-.06a4.29,4.29,0,0,1,.74,0,7.66,7.66,0,0,1,2.34.32,5.88,5.88,0,0,1,2,1,8.19,8.19,0,0,1,1.78,2A15.65,15.65,0,0,1,323,73.62c0,.09.11.32.23.62s.25.69.4,1.14.32.93.5,1.45.39,1.06.56,1.6c.43,1.27.92,2.67,1.44,4.21l3.06-9a16.83,16.83,0,0,1,1.5-3.09,8.4,8.4,0,0,1,1.78-2,5.93,5.93,0,0,1,2-1,7.59,7.59,0,0,1,2.33-.32,4.12,4.12,0,0,1,.73,0l.61.06a3.56,3.56,0,0,0,.56.13l.16.09Z"/><path class="cls-2" d="M366.54,92.3c.11.25.21.52.3.74a4.7,4.7,0,0,1,.3.66c.1.23.17.47.28.71a6,6,0,0,1-2.23.2,4.62,4.62,0,0,1-1.8-.56A3,3,0,0,1,362,92.33c-.16-.37-.45-1.07-.87-2.16s-.91-2.33-1.46-3.77h-11c-.57,1.44-1.07,2.7-1.48,3.77s-.7,1.79-.85,2.16a3.36,3.36,0,0,1-1.43,1.72,4.44,4.44,0,0,1-1.78.56,5.89,5.89,0,0,1-2.22-.2,3.83,3.83,0,0,1,.27-.71c.08-.2.16-.44.24-.66s.21-.49.33-.74c.18-.48.49-1.29,1-2.44s1-2.48,1.57-4l1.88-4.71c.66-1.64,1.29-3.21,1.86-4.71s1.1-2.79,1.58-3.94.79-1.94,1-2.4a7.52,7.52,0,0,1,.91-1.76,4.79,4.79,0,0,1,1-1,1.86,1.86,0,0,1,.9-.45,2.82,2.82,0,0,1,.84-.11,2.75,2.75,0,0,1,.83.11,1.91,1.91,0,0,1,.93.45,5.35,5.35,0,0,1,.95,1,7.92,7.92,0,0,1,.91,1.76c.18.46.49,1.26.95,2.4s1,2.46,1.57,3.94,1.21,3.07,1.88,4.71,1.28,3.23,1.88,4.71,1.12,2.81,1.56,4S366.37,91.82,366.54,92.3Zm-8.36-9.78c-.54-1.31-1-2.58-1.5-3.82s-.94-2.36-1.3-3.36c-.48-1.16-.88-2.25-1.25-3.3-.41,1-.85,2.14-1.28,3.3-.39,1-.82,2.11-1.28,3.36s-1,2.51-1.47,3.82Z"/><path class="cls-2" d="M378.1,66.82a13.91,13.91,0,0,1,5,.89,11.9,11.9,0,0,1,4.24,2.65,12.48,12.48,0,0,1,3,4.4,15.48,15.48,0,0,1,1.11,6.08,15,15,0,0,1-1.13,6.07,12.86,12.86,0,0,1-3,4.4A12.46,12.46,0,0,1,383,94a14.05,14.05,0,0,1-5,.9h-1.66c-.68,0-1.29-.06-1.84-.1-.4-.06-.8-.14-1.15-.22a7.57,7.57,0,0,1-1.05-.34,4.4,4.4,0,0,1-2.33-2,6.58,6.58,0,0,1-.64-1.8,12,12,0,0,1-.21-2.4l.08-14.19a8.91,8.91,0,0,1,.81-4.2,4.48,4.48,0,0,1,2.37-2.1,7.41,7.41,0,0,1,2.21-.51,13.53,13.53,0,0,1,1.79-.13C377.08,66.82,377.64,66.82,378.1,66.82Zm0,24.69a8.44,8.44,0,0,0,3-.53,6.79,6.79,0,0,0,2.6-1.76,9.48,9.48,0,0,0,1.87-3.28,18.74,18.74,0,0,0,0-10.22,9.43,9.43,0,0,0-1.87-3.27,6.45,6.45,0,0,0-2.6-1.75,9.14,9.14,0,0,0-3-.5h-1.29a4.59,4.59,0,0,0-1.35.18,2.68,2.68,0,0,0-1,.56,1.6,1.6,0,0,0-.41,1.18V89.57a1.61,1.61,0,0,0,.41,1.2,3,3,0,0,0,1,.57,5,5,0,0,0,1.35.17Z"/><path class="cls-2" d="M427.14,92.3c.11.25.21.52.31.74a5.9,5.9,0,0,1,.28.66,6.15,6.15,0,0,1,.28.71,5.89,5.89,0,0,1-2.21.2,4.52,4.52,0,0,1-1.81-.56,3,3,0,0,1-1.42-1.72c-.15-.37-.44-1.07-.86-2.16s-.89-2.33-1.46-3.77h-11c-.56,1.44-1.06,2.7-1.47,3.77s-.69,1.79-.85,2.16a3.33,3.33,0,0,1-1.44,1.72,4.34,4.34,0,0,1-1.78.56,5.79,5.79,0,0,1-2.2-.2,4.61,4.61,0,0,1,.25-.71c.08-.2.16-.44.26-.66s.2-.49.32-.74c.19-.48.51-1.29.95-2.44s1-2.48,1.58-4l1.89-4.71c.66-1.64,1.27-3.21,1.86-4.71s1.1-2.79,1.55-3.94.81-1.94,1-2.4a7.52,7.52,0,0,1,.91-1.76,5,5,0,0,1,1-1,2,2,0,0,1,.91-.45,2.84,2.84,0,0,1,.85-.11,2.77,2.77,0,0,1,.82.11,1.88,1.88,0,0,1,.92.45,4.77,4.77,0,0,1,.95,1,7.9,7.9,0,0,1,.92,1.76c.17.46.49,1.26.95,2.4s.95,2.46,1.56,3.94,1.23,3.07,1.88,4.71,1.28,3.23,1.88,4.71,1.12,2.81,1.57,4S427,91.82,427.14,92.3Zm-8.36-9.78c-.54-1.31-1-2.58-1.52-3.82s-.93-2.36-1.28-3.36c-.47-1.16-.88-2.25-1.24-3.3-.41,1-.85,2.14-1.28,3.3-.4,1-.83,2.11-1.3,3.36s-.94,2.51-1.46,3.82Z"/><path class="cls-2" d="M430.11,70.78c0-.78,0-1.41,0-1.9a8.94,8.94,0,0,0-.05-1.15c0-.32-.06-.56-.07-.71q4.73,0,4.73,4.6l.07,10a41.76,41.76,0,0,0,.2,4.29,7.06,7.06,0,0,0,.9,2.77,3.68,3.68,0,0,0,2,1.51,10.39,10.39,0,0,0,3.34.45l1.77,0c.54,0,1,0,1.34-.06a7.27,7.27,0,0,0,1.16-.12v.24a3.25,3.25,0,0,1-.29,1.32,3.92,3.92,0,0,1-.88,1.23,5.51,5.51,0,0,1-1.52.93,5.63,5.63,0,0,1-2.18.37,16.66,16.66,0,0,1-5.15-.66,6.2,6.2,0,0,1-3.18-2.17,9.39,9.39,0,0,1-1.66-4.06,35.58,35.58,0,0,1-.45-6.26Z"/><path class="cls-2" d="M453,90.68c0,.79,0,1.43,0,1.92s0,.9.05,1.18a5.53,5.53,0,0,0,.09.71,5.89,5.89,0,0,1-3.65-1,4,4,0,0,1-1.3-3.36V74.18A8.68,8.68,0,0,1,449,70a4.06,4.06,0,0,1,1-1.26,5.83,5.83,0,0,1,1.3-.78,9.32,9.32,0,0,1,1.06-.33,6.65,6.65,0,0,1,1.16-.21c.55-.07,1.12-.1,1.69-.12s1.22,0,1.88,0h3.41c1.67,0,2.84,0,3.57-.09s1.19-.08,1.4-.11h.31v.24a3.89,3.89,0,0,1-.47,2.07,2.7,2.7,0,0,1-1.21,1.22,4.13,4.13,0,0,1-1.61.47c-.6,0-1.2.08-1.78.08h-6.62a1.42,1.42,0,0,0-.64.2.62.62,0,0,0-.35.32,2.41,2.41,0,0,0-.25,1.28l0,4.8h9.63a4,4,0,0,1-1,2.82,3.57,3.57,0,0,1-2.76,1.06h-5.91Z"/><path class="cls-2" d="M486.2,92.3c.11.25.21.52.31.74a4.38,4.38,0,0,1,.27.66c.11.23.18.47.29.71a6,6,0,0,1-2.22.2,4.61,4.61,0,0,1-1.82-.56,3.13,3.13,0,0,1-1.42-1.72c-.16-.37-.43-1.07-.83-2.16s-.91-2.33-1.49-3.77h-11c-.57,1.44-1.06,2.7-1.49,3.77s-.7,1.79-.84,2.16a3.37,3.37,0,0,1-1.44,1.72,4.39,4.39,0,0,1-1.79.56,5.81,5.81,0,0,1-2.2-.2c.09-.24.16-.48.26-.71s.16-.44.25-.66.22-.49.34-.74c.17-.48.5-1.29.95-2.44l1.57-4c.58-1.48,1.22-3,1.89-4.71s1.28-3.21,1.85-4.71,1.12-2.79,1.57-3.94.8-1.94,1-2.4a7.52,7.52,0,0,1,.91-1.76,4.53,4.53,0,0,1,1-1,2,2,0,0,1,.9-.45,2.88,2.88,0,0,1,.85-.11,2.77,2.77,0,0,1,.82.11,1.88,1.88,0,0,1,.92.45,5,5,0,0,1,1,1,8.86,8.86,0,0,1,.91,1.76c.18.46.49,1.26.95,2.4s1,2.46,1.56,3.94,1.23,3.07,1.89,4.71,1.29,3.23,1.89,4.71,1.1,2.81,1.57,4Zm-8.38-9.78c-.52-1.31-1-2.58-1.51-3.82s-.93-2.36-1.28-3.36c-.47-1.16-.88-2.25-1.24-3.3-.44,1-.85,2.14-1.28,3.3-.4,1-.82,2.11-1.27,3.36s-1,2.51-1.5,3.82Z"/><path class="cls-2" d="M501.35,82.64a3.62,3.62,0,0,1-2.78-1.06,4,4,0,0,1-1-2.82H503a7.37,7.37,0,0,1,3,.54,3.72,3.72,0,0,1,1.82,1.46,6,6,0,0,1,.91,2.24,13.47,13.47,0,0,1,.27,2.69V87.3a7.74,7.74,0,0,1-.61,3.09,6.23,6.23,0,0,1-1.83,2.38,8.38,8.38,0,0,1-3,1.56,14.4,14.4,0,0,1-4.18.55,14,14,0,0,1-4.95-.9,12.47,12.47,0,0,1-4.25-2.67,13.13,13.13,0,0,1-3-4.4,17.47,17.47,0,0,1,0-12.15,13,13,0,0,1,3-4.4,12.12,12.12,0,0,1,4.25-2.65,14,14,0,0,1,4.95-.89,9.75,9.75,0,0,1,2.89.37,11,11,0,0,1,2.15.88,8.45,8.45,0,0,1,1.48,1.05,4.43,4.43,0,0,1,.73.84,3.91,3.91,0,0,1-.3.45,3.44,3.44,0,0,0-.28.36,1,1,0,0,1-.33.25,1.92,1.92,0,0,1-1,.28,3.23,3.23,0,0,1-1-.18c-.32-.11-.65-.25-1-.37a12.93,12.93,0,0,0-1.34-.37,8.15,8.15,0,0,0-1.94-.18,7.52,7.52,0,0,0-3,.62,7.68,7.68,0,0,0-2.62,1.93,10.35,10.35,0,0,0-1.88,3.32,17.11,17.11,0,0,0,0,9.55,10.68,10.68,0,0,0,1.88,3.32,7.32,7.32,0,0,0,5.58,2.57,7.36,7.36,0,0,0,2.58-.38,3.51,3.51,0,0,0,1.55-1,3.82,3.82,0,0,0,.73-1.62,11.86,11.86,0,0,0,.18-2.16v-1.9a4.24,4.24,0,0,0-.11-1,1,1,0,0,0-.46-.55,1.55,1.55,0,0,0-.67-.2h-1.72Z"/><path class="cls-2" d="M512.17,90.68V71.58a4,4,0,0,1,1.25-3.36,5.79,5.79,0,0,1,3.67-1c0,.16-.06.39-.09.7s0,.68,0,1.16,0,1.12,0,1.9l-.07,19.11a4.13,4.13,0,0,1-1.24,3.37,5.58,5.58,0,0,1-3.62,1,5.53,5.53,0,0,0,.09-.71c0-.28,0-.68,0-1.18S512.11,91.47,512.17,90.68Z"/><path class="cls-2" d="M536.38,71.62a4.22,4.22,0,0,1,1.21-3.4,5.62,5.62,0,0,1,3.64-1,7.11,7.11,0,0,0-.09.74,11.17,11.17,0,0,0,0,1.16c0,.47,0,1.11,0,1.9L541,90.68c0,.82,0,1.46,0,1.95s0,.87.07,1.15a4.93,4.93,0,0,0,.06.71,5.78,5.78,0,0,1-3.64-1,4.07,4.07,0,0,1-1.22-3.36V81.75h-11v8.93c0,.82,0,1.46,0,1.95s0,.87.07,1.15.05.55.07.71a5.84,5.84,0,0,1-3.66-1,4,4,0,0,1-1.25-3.36l.07-18.51a4.22,4.22,0,0,1,1.23-3.4,5.55,5.55,0,0,1,3.61-1c0,.17,0,.44-.07.74s-.06.67-.07,1.16,0,1.11,0,1.9v6.84h11Z"/><path class="cls-2" d="M569.43,71.62a4.25,4.25,0,0,1,1.21-3.4,5.65,5.65,0,0,1,3.63-1,5.64,5.64,0,0,0-.07.74c0,.27,0,.67-.06,1.16s0,1.11,0,1.9l0,19.66c0,.82,0,1.46,0,1.95s0,.87.06,1.15.05.55.07.71a5.67,5.67,0,0,1-3.63-1,4,4,0,0,1-1.24-3.36V81.75h-11v8.93c0,.82,0,1.46,0,1.95s0,.87.05,1.15.07.55.09.71a5.91,5.91,0,0,1-3.68-1,4.08,4.08,0,0,1-1.26-3.36l.09-18.51a4.22,4.22,0,0,1,1.21-3.4,5.64,5.64,0,0,1,3.64-1c0,.17-.07.44-.09.74s0,.67-.05,1.16,0,1.11,0,1.9v6.84h11Z"/><path class="cls-2" d="M590.45,66.78a13.61,13.61,0,0,1,4.94.91,12.46,12.46,0,0,1,4.27,2.67,13.11,13.11,0,0,1,3,4.36,17.35,17.35,0,0,1,0,12.16,13.23,13.23,0,0,1-3,4.41A12.36,12.36,0,0,1,595.39,94a13.81,13.81,0,0,1-4.94.9,14,14,0,0,1-5-.9,12.33,12.33,0,0,1-4.24-2.69,13.08,13.08,0,0,1-3-4.41,17.35,17.35,0,0,1,0-12.16,13,13,0,0,1,3-4.36,12.43,12.43,0,0,1,4.24-2.67A13.78,13.78,0,0,1,590.45,66.78Zm0,24.73A7.2,7.2,0,0,0,596,88.93a10.3,10.3,0,0,0,1.88-3.35,16.83,16.83,0,0,0,0-9.54A9.6,9.6,0,0,0,596,72.75a7.3,7.3,0,0,0-5.59-2.55,7.61,7.61,0,0,0-3,.62,8,8,0,0,0-2.62,1.93A9.91,9.91,0,0,0,583,76a17.07,17.07,0,0,0,0,9.54,10.65,10.65,0,0,0,1.86,3.35,7.94,7.94,0,0,0,2.62,2A7.61,7.61,0,0,0,590.45,91.51Z"/><path class="cls-2" d="M615,94.88a12.84,12.84,0,0,1-3.56-.47,14.11,14.11,0,0,1-2.71-1.11,9.54,9.54,0,0,1-1.8-1.31,4.35,4.35,0,0,1-.82-1.07l.13-.12a3,3,0,0,1,.75-.82,1.58,1.58,0,0,1,.82-.24,1.4,1.4,0,0,1,.51.08l.58.19a3.67,3.67,0,0,1,.61.21c.22.1.45.21.71.35a14.43,14.43,0,0,0,1.83.56,11.35,11.35,0,0,0,2.5.34H615a7.58,7.58,0,0,0,2.43-.34,4.87,4.87,0,0,0,1.64-.86,3.38,3.38,0,0,0,.89-1.18,3.57,3.57,0,0,0,.26-1.23,2.82,2.82,0,0,0-.61-1.88,7.28,7.28,0,0,0-1.75-1.61c-.76-.53-1.63-1.06-2.64-1.63S613.09,81.62,612,81a12.62,12.62,0,0,1-4.16-3.6,6.27,6.27,0,0,1-1.15-4.17,6.46,6.46,0,0,1,.88-2.86,6.81,6.81,0,0,1,1.85-2,7.53,7.53,0,0,1,2.49-1.18,11,11,0,0,1,2.79-.37,11.78,11.78,0,0,1,4.12.63,19.1,19.1,0,0,1,3,1.37,11.5,11.5,0,0,1,2.45,2l-.08.11a3.83,3.83,0,0,1-.78.79,1.46,1.46,0,0,1-.87.28,2.74,2.74,0,0,1-1-.28,5.59,5.59,0,0,1-.63-.26l-.73-.29a13.57,13.57,0,0,0-2.37-.69,9.33,9.33,0,0,0-2.24-.21,10.11,10.11,0,0,0-1.08.07,5.64,5.64,0,0,0-1.11.28,2.86,2.86,0,0,0-.93.55,1.89,1.89,0,0,0-.57.9,2.05,2.05,0,0,0,.49,2.09,11.12,11.12,0,0,0,2.24,1.75,35.13,35.13,0,0,0,3.15,1.72,24,24,0,0,1,3.24,1.9,12.47,12.47,0,0,1,3.13,3,7.86,7.86,0,0,1,1.25,3,6.69,6.69,0,0,1-.16,2.86,8.09,8.09,0,0,1-1.08,2.44,7.75,7.75,0,0,1-3.69,3A13.69,13.69,0,0,1,615,94.88Z"/><path class="cls-2" d="M633.17,90.68c0,.82,0,1.46,0,1.95s0,.87,0,1.15a5.53,5.53,0,0,0,.09.71,5.91,5.91,0,0,1-3.67-1,4,4,0,0,1-1.3-3.36l.06-16.61a6.73,6.73,0,0,1,.66-3.11,5.34,5.34,0,0,1,1.84-2,7.5,7.5,0,0,1,2.74-1.09,22.57,22.57,0,0,1,3.44-.46,15.9,15.9,0,0,1,3.83.26,12,12,0,0,1,3.75,1.45,9,9,0,0,1,2.94,2.8,8.61,8.61,0,0,1,1.29,4.48,10.55,10.55,0,0,1-.38,3.39,8.62,8.62,0,0,1-4.62,5.5,10,10,0,0,1-4.53.92,20.15,20.15,0,0,1-2.43-.14c-.73-.11-1.38-.24-2-.36a13.35,13.35,0,0,1-1.84-.56Zm5.35-8.91a5.16,5.16,0,0,0,5.53-6,6.56,6.56,0,0,0-.68-2.64,4.8,4.8,0,0,0-1.55-1.64,5.79,5.79,0,0,0-2.18-.78,10.77,10.77,0,0,0-2.53-.08,7.06,7.06,0,0,0-1.93.41,3.89,3.89,0,0,0-1.17.72,2.15,2.15,0,0,0-.62.91,3,3,0,0,0-.17,1v6.91a11.71,11.71,0,0,0,1.55.53c.49.13,1,.27,1.69.4A10.31,10.31,0,0,0,638.52,81.77Z"/><path class="cls-2" d="M651.05,90.68V71.58a4.06,4.06,0,0,1,1.27-3.36,5.81,5.81,0,0,1,3.68-1,4.17,4.17,0,0,0-.09.7c0,.3,0,.68-.06,1.16s0,1.12,0,1.9l-.1,19.11a4.09,4.09,0,0,1-1.22,3.37,5.53,5.53,0,0,1-3.61,1c0-.16.06-.39.08-.71s0-.68,0-1.18S651,91.47,651.05,90.68Z"/><path class="cls-2" d="M672.68,90.68c0,.79,0,1.43,0,1.92s0,.9.07,1.18a3,3,0,0,0,.07.71,5.75,5.75,0,0,1-3.69-1,4.05,4.05,0,0,1-1.28-3.37l.08-19h-8.53a3.91,3.91,0,0,1,1-2.81,3.44,3.44,0,0,1,2.74-1.07h18.08a4.1,4.1,0,0,1-1,2.83,3.57,3.57,0,0,1-2.77,1h-4.84Z"/><path class="cls-2" d="M705,92.3c.11.25.21.52.31.74s.2.46.28.66.18.47.26.71a5.81,5.81,0,0,1-2.2.2,4.48,4.48,0,0,1-1.8-.56,3.1,3.1,0,0,1-1.43-1.72c-.15-.37-.44-1.07-.85-2.16s-.9-2.33-1.47-3.77h-11c-.56,1.44-1.06,2.7-1.49,3.77s-.68,1.79-.83,2.16a3.29,3.29,0,0,1-1.45,1.72,4.3,4.3,0,0,1-1.78.56,5.89,5.89,0,0,1-2.21-.2,6.09,6.09,0,0,1,.27-.71c.08-.2.17-.44.25-.66s.21-.49.33-.74c.18-.48.53-1.29.94-2.44s1-2.48,1.59-4,1.21-3,1.88-4.71,1.27-3.21,1.86-4.71,1.1-2.79,1.58-3.94.78-1.94,1-2.4a8.36,8.36,0,0,1,.91-1.76,5.37,5.37,0,0,1,1-1,1.92,1.92,0,0,1,.89-.45,2.88,2.88,0,0,1,.85-.11,2.82,2.82,0,0,1,.84.11,2,2,0,0,1,.91.45,5.35,5.35,0,0,1,.95,1,8.86,8.86,0,0,1,.91,1.76c.17.46.48,1.26.94,2.4s1,2.46,1.57,3.94,1.24,3.07,1.87,4.71l1.9,4.71c.6,1.49,1.1,2.81,1.59,4S704.8,91.82,705,92.3Zm-8.37-9.78c-.53-1.31-1-2.58-1.52-3.82s-.93-2.36-1.27-3.36c-.47-1.16-.88-2.25-1.25-3.3-.41,1-.85,2.14-1.28,3.3-.39,1-.81,2.11-1.3,3.36s-1,2.51-1.46,3.82Z"/><path class="cls-2" d="M707.93,70.78c0-.78,0-1.41,0-1.9s0-.87,0-1.15-.07-.56-.08-.71q4.72,0,4.73,4.6l.07,10a41.4,41.4,0,0,0,.21,4.29,7.06,7.06,0,0,0,.89,2.77,3.69,3.69,0,0,0,2,1.51,10.15,10.15,0,0,0,3.33.45l1.76,0c.54,0,1,0,1.34-.06a7.4,7.4,0,0,0,1.16-.12v.24A3.79,3.79,0,0,1,723,92a3.86,3.86,0,0,1-.91,1.23,5,5,0,0,1-1.5.93,5.67,5.67,0,0,1-2.2.37,16.54,16.54,0,0,1-5.12-.66A6.24,6.24,0,0,1,710,91.66a9.51,9.51,0,0,1-1.64-4.06,35.36,35.36,0,0,1-.47-6.26Z"/><path class="cls-3" d="M146.69,50.26a2.61,2.61,0,0,0-1.92.82,3.06,3.06,0,0,0-.79,2.13,2.67,2.67,0,0,0,.79,1.92,2.58,2.58,0,0,0,1.92.83,2.67,2.67,0,0,0,2-.83,2.51,2.51,0,0,0,.82-1.92,2.87,2.87,0,0,0-.82-2.13A2.7,2.7,0,0,0,146.69,50.26Z"/><path class="cls-3" d="M140.48,50.26a2.76,2.76,0,0,0-2,.82,2.91,2.91,0,0,0-.82,2.13,2.55,2.55,0,0,0,.82,1.92,2.73,2.73,0,0,0,2,.83,2.54,2.54,0,0,0,1.92-.83,2.64,2.64,0,0,0,.8-1.92,3,3,0,0,0-.8-2.13A2.56,2.56,0,0,0,140.48,50.26Z"/><path class="cls-3" d="M176.51,25.22a2.82,2.82,0,0,0,2.07-.82,2.77,2.77,0,0,0,.83-2,2.53,2.53,0,0,0-.83-2,3,3,0,0,0-2.07-.73,2.67,2.67,0,0,0-1.91.73,2.64,2.64,0,0,0-.79,2,2.9,2.9,0,0,0,.79,2A2.56,2.56,0,0,0,176.51,25.22Z"/><path class="cls-3" d="M170.32,25.22a2.58,2.58,0,0,0,1.92-.82,2.76,2.76,0,0,0,.82-2,2.52,2.52,0,0,0-.82-2,2.7,2.7,0,0,0-1.92-.73,2.86,2.86,0,0,0-2,.73,2.52,2.52,0,0,0-.82,2,2.76,2.76,0,0,0,.82,2A2.72,2.72,0,0,0,170.32,25.22Z"/><path class="cls-3" d="M207.7,25.22a2.68,2.68,0,0,0,2-.81,2.82,2.82,0,0,0,.78-2,2.61,2.61,0,0,0-2.79-2.74,2.69,2.69,0,0,0-2,.74,2.82,2.82,0,0,0-.74,2,2.87,2.87,0,0,0,.74,2A2.59,2.59,0,0,0,207.7,25.22Z"/><path class="cls-3" d="M236.55,22.05v0a4.16,4.16,0,0,0-1.22,3.08V42.92H217.62V37.46a9.33,9.33,0,0,0-.76-3.71,11.69,11.69,0,0,0-2.07-3.18,12.47,12.47,0,0,0-3.22-2,9.57,9.57,0,0,0-3.7-.72,9.69,9.69,0,0,0-3.76.72,12.51,12.51,0,0,0-3.26,2,11.13,11.13,0,0,0-2,3.15,10.06,10.06,0,0,0-.35,6.5,10.19,10.19,0,0,0,1.36,2.7H183.15V37.46a9.34,9.34,0,0,0-.77-3.71,12.37,12.37,0,0,0-2-3.18,12.92,12.92,0,0,0-3.24-2,9.5,9.5,0,0,0-3.7-.72,9.72,9.72,0,0,0-3.76.72,12.9,12.9,0,0,0-3.27,2,12.31,12.31,0,0,0-2,3.15,9.55,9.55,0,0,0-.72,3.74,10.12,10.12,0,0,0,.36,2.76,11.26,11.26,0,0,0,1.37,2.7H145.91V27.15a4.81,4.81,0,0,0-1.93.45,5.93,5.93,0,0,0-1.37,1,5.85,5.85,0,0,0-.81,1.25,3.39,3.39,0,0,0-.37,1.57V42.92h-9.61V37.46a8.79,8.79,0,0,0-.75-3.75,10.36,10.36,0,0,0-2.2-3.17,9.2,9.2,0,0,0-3-2,9.84,9.84,0,0,0-3.79-.71,10.33,10.33,0,0,0-3.94.71,10.63,10.63,0,0,0-3.12,2,9.1,9.1,0,0,0-2.07,3.12,11.29,11.29,0,0,0,0,7.58,8.81,8.81,0,0,0,2.13,3.2,9.28,9.28,0,0,0,3.1,2,9.9,9.9,0,0,0,3.85.69H239.67V20.88a5.34,5.34,0,0,0-2,.37A3.17,3.17,0,0,0,236.55,22.05ZM127.18,42.92H122a5.22,5.22,0,0,1-3.81-1.7v0a8.16,8.16,0,0,1-1.11-1.77,5,5,0,0,1-.43-2,4.52,4.52,0,0,1,.45-2,10,10,0,0,1,1-1.74A6,6,0,0,1,120,32.5a5.07,5.07,0,0,1,2.06-.43,5.2,5.2,0,0,1,3.65,1.73,5.08,5.08,0,0,1,1.52,3.66Zm51.54,0h-5.33a4.13,4.13,0,0,1-1.91-.45,6.12,6.12,0,0,1-1.72-1.25v0a8.08,8.08,0,0,1-1.3-1.8,4.67,4.67,0,0,1-.45-2,4.38,4.38,0,0,1,.49-2,7.41,7.41,0,0,1,1.26-1.75A5,5,0,0,1,173.39,32,4.87,4.87,0,0,1,177,33.64a6.26,6.26,0,0,1,1.27,1.75,4.49,4.49,0,0,1,.47,2Zm34.47,0h-5.32a4.22,4.22,0,0,1-1.93-.45,5.87,5.87,0,0,1-1.69-1.25v0a6.54,6.54,0,0,1-1.3-1.8,4.42,4.42,0,0,1-.47-2,4.52,4.52,0,0,1,.5-2,6.92,6.92,0,0,1,1.27-1.75,4.82,4.82,0,0,1,7.21,0,6.47,6.47,0,0,1,1.27,1.75,4.62,4.62,0,0,1,.46,2Z"/><path class="cls-3" d="M245.69,21.21a7.11,7.11,0,0,0-2-.33V43a4.12,4.12,0,0,0,.33,1.7,5.58,5.58,0,0,0,.87,1.3,3.21,3.21,0,0,0,1.35.76,8,8,0,0,0,2,.35v-22A4.23,4.23,0,0,0,247.05,22,3.34,3.34,0,0,0,245.69,21.21Z"/><path class="cls-3" d="M377.45,28.59a9.15,9.15,0,0,0-3.81-.76,10,10,0,0,0-3.84.71,9.32,9.32,0,0,0-3,2,10.22,10.22,0,0,0-2.17,3.12,9.27,9.27,0,0,0-.76,3.8v5.46H346.6l0-5.3a9.48,9.48,0,0,0-.77-3.74,10.18,10.18,0,0,0-2.15-3.13,12.61,12.61,0,0,0-3.1-2,9.14,9.14,0,0,0-3.74-.72H331a5.39,5.39,0,0,0,.39,2,4.53,4.53,0,0,0,.92,1.19,4.64,4.64,0,0,0,1.25.78,4.26,4.26,0,0,0,1.57.31h1.72a4.92,4.92,0,0,1,3.68,1.59,6.37,6.37,0,0,1,1.16,1.74,4.6,4.6,0,0,1,.44,2v5.3H312.52a12.2,12.2,0,0,0,1.31-2.72,10.08,10.08,0,0,0,.39-2.74,9,9,0,0,0-.76-3.71,12,12,0,0,0-2.06-3.18,12.66,12.66,0,0,0-3.24-2,9.55,9.55,0,0,0-3.71-.72,9.79,9.79,0,0,0-3.73.71,11.7,11.7,0,0,0-3.26,2,9.85,9.85,0,0,0-2.76,6.92v5.46H275.48a9.88,9.88,0,0,0,1.31-2.69,9.8,9.8,0,0,0-2.52-9.66h.05a10.07,10.07,0,0,0-3-2,9.78,9.78,0,0,0-3.82-.72h-9.73a8.9,8.9,0,0,0,.45,2,3.6,3.6,0,0,0,.81,1.25,4,4,0,0,0,3,1.16h5.48a4.93,4.93,0,0,1,2,.41,5.72,5.72,0,0,1,3,2.92,4.69,4.69,0,0,1,.41,1.94,4.55,4.55,0,0,1-.45,2,8.71,8.71,0,0,1-1.25,1.82v0a5.14,5.14,0,0,1-1.68,1.15,5.28,5.28,0,0,1-2,.41h-8.2a4.11,4.11,0,0,0-1.71.32,4.93,4.93,0,0,0-1.19.79,3.32,3.32,0,0,0-.87,1.21,7.15,7.15,0,0,0-.47,1.86H373.61a9.92,9.92,0,0,0,3.86-.69,9.67,9.67,0,0,0,3.12-2,9,9,0,0,0,2.13-3.18,11.12,11.12,0,0,0,.66-3.8,9.44,9.44,0,0,0-2.79-6.82A12.39,12.39,0,0,0,377.45,28.59ZM309.27,39.46a12.32,12.32,0,0,1-1.18,1.9,5.92,5.92,0,0,1-1.68,1.11,4.43,4.43,0,0,1-2,.45h-5.39V37.46a4.38,4.38,0,0,1,.49-2,8.23,8.23,0,0,1,1.3-1.77,4.57,4.57,0,0,1,1.61-1.21,4.51,4.51,0,0,1,2-.38,4.58,4.58,0,0,1,2,.38,4.79,4.79,0,0,1,1.62,1.21,7.14,7.14,0,0,1,1.25,1.82,4.44,4.44,0,0,1,.45,2A4.32,4.32,0,0,1,309.27,39.46Zm69.28,0a10.63,10.63,0,0,1-1.08,1.9,6.4,6.4,0,0,1-1.78,1.13,5.12,5.12,0,0,1-2.05.43h-5.19V37.46a4.35,4.35,0,0,1,.46-2A9.34,9.34,0,0,1,370,33.66a7.42,7.42,0,0,1,1.72-1.13,4.54,4.54,0,0,1,1.92-.46,5.33,5.33,0,0,1,2,.43,5.93,5.93,0,0,1,1.8,1.23v0a6.16,6.16,0,0,1,1.1,1.72,4.9,4.9,0,0,1,.44,2A4.78,4.78,0,0,1,378.55,39.46Z"/><path class="cls-3" d="M392.7,29.19a5.55,5.55,0,0,0-1,1.31,2.74,2.74,0,0,0-.31,1.46V53.78a5.43,5.43,0,0,0,1.84-.47,5.63,5.63,0,0,0,1.41-1,5,5,0,0,0,.93-1.37,3.63,3.63,0,0,0,.34-1.49V27.78a5.81,5.81,0,0,0-1.73.45A5.66,5.66,0,0,0,392.7,29.19Z"/><path class="cls-3" d="M426.32,25.22a2.59,2.59,0,0,0,1.91-.82,2.68,2.68,0,0,0,.81-2,2.45,2.45,0,0,0-.81-2,2.71,2.71,0,0,0-1.91-.73,2.84,2.84,0,0,0-2,.73,2.5,2.5,0,0,0-.83,2,2.82,2.82,0,0,0,2.87,2.87Z"/><path class="cls-3" d="M432.52,25.22a2.82,2.82,0,0,0,2.88-2.87,2.53,2.53,0,0,0-.83-2,2.93,2.93,0,0,0-2.05-.73,2.59,2.59,0,0,0-2.73,2.7,2.93,2.93,0,0,0,.78,2A2.57,2.57,0,0,0,432.52,25.22Z"/><path class="cls-3" d="M457.31,29.26a6.4,6.4,0,0,1,1.81-1.37,5.47,5.47,0,0,1,2.2-.41h12.16a3.59,3.59,0,0,0,1.77-.42,8.26,8.26,0,0,0,1.49-1,5,5,0,0,0,.79-1.14,7.94,7.94,0,0,0,.49-2h-16.7a11.25,11.25,0,0,0-3.95.68,8.66,8.66,0,0,0-3.07,1.91,12,12,0,0,0-2.13,3.52,11.14,11.14,0,0,0-.82,3.82,1.55,1.55,0,0,0,0,.34.81.81,0,0,0,.16.27.82.82,0,0,0,.08.21.2.2,0,0,1,.12.09h0l.34.35c.69.51,1.43,1,2.2,1.51a9.25,9.25,0,0,0,2.41,1.16l0,0a2.27,2.27,0,0,0,.58.23l.45.11H458s.14.06.32.06h.35a5.47,5.47,0,0,0,.87.07c.32,0,.66,0,1,0h20.29a5.05,5.05,0,0,1-.59,2.09A12.87,12.87,0,0,1,479,41.2l0,0a6.78,6.78,0,0,1-1.81,1.28,4.62,4.62,0,0,1-2,.48H432.07V27.15a4.36,4.36,0,0,0-2,.44,5.4,5.4,0,0,0-1.32,1,4.94,4.94,0,0,0-.83,1.25,3.61,3.61,0,0,0-.32,1.57V42.92h-9V37.43a10.21,10.21,0,0,0-.68-3.78,9,9,0,0,0-2.23-3.15,11.09,11.09,0,0,0-3.13-2,9,9,0,0,0-3.68-.74,9.51,9.51,0,0,0-9.07,5.88,10.12,10.12,0,0,0-.67,3.77,9.3,9.3,0,0,0,2.9,7,8.29,8.29,0,0,0,3.05,2,10,10,0,0,0,3.81.69h5.27v2.4a4.14,4.14,0,0,0,1.13,3.06,4.94,4.94,0,0,0,1.43.92,6.73,6.73,0,0,0,1.87.44V47.1h56.67a12.43,12.43,0,0,0,2.06-.19,17,17,0,0,0,1.95-.52,10.32,10.32,0,0,0,1.29-.68,13,13,0,0,0,1.39-1l.3-.07a12.1,12.1,0,0,0,2.16-3.48,10.22,10.22,0,0,0,.78-3.91V32.77l-29.62-.06A4.65,4.65,0,0,1,457.31,29.26ZM414.13,42.92h-5.29a4.43,4.43,0,0,1-2-.47,6.57,6.57,0,0,1-1.77-1.23,6.48,6.48,0,0,1-1.21-1.73,5.56,5.56,0,0,1-.36-2.06,4.62,4.62,0,0,1,.41-2,6.63,6.63,0,0,1,1.24-1.77,6.54,6.54,0,0,1,1.75-1.21,4.63,4.63,0,0,1,1.92-.43,5.14,5.14,0,0,1,3.73,1.69v-.05a6.74,6.74,0,0,1,1.12,1.73,4.69,4.69,0,0,1,.44,2Z"/><path class="cls-3" d="M523,22.05v0a4.16,4.16,0,0,0-1.22,3.08V42.92H510.6a9.59,9.59,0,0,0,1.31-2.69,8.62,8.62,0,0,0,.39-2.69,9.35,9.35,0,0,0-2.89-7h0a9.75,9.75,0,0,0-3-2,9.57,9.57,0,0,0-3.8-.72h-9.73a8.54,8.54,0,0,0,.43,2,3.6,3.6,0,0,0,.81,1.25,4,4,0,0,0,3,1.16h5.5a5.08,5.08,0,0,1,2,.41,6.37,6.37,0,0,1,1.77,1.22,6.26,6.26,0,0,1,1.18,1.7,4.4,4.4,0,0,1,.42,1.94,4.55,4.55,0,0,1-.46,2,9,9,0,0,1-1.23,1.82v0a5.25,5.25,0,0,1-3.71,1.56h-8.2a4.24,4.24,0,0,0-1.73.32,5.43,5.43,0,0,0-1.2.79,3.37,3.37,0,0,0-.84,1.21,8,8,0,0,0-.48,1.86h35.88V20.88a5.48,5.48,0,0,0-2,.37A3.17,3.17,0,0,0,523,22.05Z"/><path class="cls-3" d="M532.09,21.21a7.11,7.11,0,0,0-2-.33V43a4.12,4.12,0,0,0,.33,1.7,5.58,5.58,0,0,0,.87,1.3,3.3,3.3,0,0,0,1.34.76,8.36,8.36,0,0,0,2,.35v-22A4.2,4.2,0,0,0,533.44,22,3.3,3.3,0,0,0,532.09,21.21Z"/><path class="cls-3" d="M594.14,25.22a2.63,2.63,0,0,0,2-.81,2.78,2.78,0,0,0,.78-2,2.61,2.61,0,0,0-2.78-2.74,2.65,2.65,0,0,0-2,.74,2.78,2.78,0,0,0-.74,2,2.83,2.83,0,0,0,.74,2A2.55,2.55,0,0,0,594.14,25.22Z"/><path class="cls-3" d="M632.26,22.35a3,3,0,0,0,.71,2,2.49,2.49,0,0,0,2,.82,2.93,2.93,0,0,0,2.11-.82,2.69,2.69,0,0,0,.87-2,2.47,2.47,0,0,0-.87-2,3.08,3.08,0,0,0-2.11-.73,2.61,2.61,0,0,0-2,.73A2.71,2.71,0,0,0,632.26,22.35Z"/><path class="cls-3" d="M631.8,19.24a2.54,2.54,0,0,0,2-.86,3,3,0,0,0,.79-2.14,2.59,2.59,0,0,0-.79-1.91,2.69,2.69,0,0,0-2-.79,2.78,2.78,0,0,0-2,.79,2.54,2.54,0,0,0-.78,1.91,2.93,2.93,0,0,0,.78,2.14A2.62,2.62,0,0,0,631.8,19.24Z"/><path class="cls-3" d="M628.59,25.22a2.82,2.82,0,0,0,2.89-2.87,2.53,2.53,0,0,0-.83-2,2.91,2.91,0,0,0-2.06-.73,2.59,2.59,0,0,0-2.69,2.7,2.89,2.89,0,0,0,.78,2A2.51,2.51,0,0,0,628.59,25.22Z"/><path class="cls-3" d="M666.55,25.22a2.77,2.77,0,0,0,2.05-.82,2.71,2.71,0,0,0,.85-2,2.48,2.48,0,0,0-.85-2,2.91,2.91,0,0,0-2.05-.73,2.64,2.64,0,0,0-1.93.73,2.59,2.59,0,0,0-.77,2,2.84,2.84,0,0,0,.77,2A2.53,2.53,0,0,0,666.55,25.22Z"/><path class="cls-3" d="M660.33,25.22a2.66,2.66,0,0,0,1.95-.82,2.8,2.8,0,0,0,.82-2,2.56,2.56,0,0,0-.82-2,2.79,2.79,0,0,0-1.95-.73,2.91,2.91,0,0,0-2,.73,2.54,2.54,0,0,0-.8,2,2.77,2.77,0,0,0,2.83,2.87Z"/><path class="cls-3" d="M721.15,30.64A12.75,12.75,0,0,0,718,28.59a9.22,9.22,0,0,0-3.81-.76,10,10,0,0,0-3.84.71,9.36,9.36,0,0,0-3,2,10.4,10.4,0,0,0-2.17,3.12,9.27,9.27,0,0,0-.75,3.8v5.46h-7.56V27.83a5.39,5.39,0,0,0-2.09.42,4.2,4.2,0,0,0-1.21.84A4,4,0,0,0,692.45,32V41.7c0,.21,0,.41,0,.59s0,.42,0,.63H689V31.36a7,7,0,0,0-1.91.32,3.44,3.44,0,0,0-2.07,2.16,7.69,7.69,0,0,0-.36,1.48l0,7.6h-3.85V35.54a8,8,0,0,0-2.08.49,3.4,3.4,0,0,0-1.26.79,4,4,0,0,0-1.16,3v3.12H666.11V27.15a4.55,4.55,0,0,0-2,.44,5.69,5.69,0,0,0-1.3,1,6.36,6.36,0,0,0-.84,1.25,3.76,3.76,0,0,0-.32,1.57V42.92H642V27.83a5.35,5.35,0,0,0-2.09.42,4.2,4.2,0,0,0-1.21.84A4,4,0,0,0,637.61,32V41.7a5.53,5.53,0,0,0,0,.59c0,.19,0,.42,0,.63h-3.43V31.36a6.92,6.92,0,0,0-1.91.32,3.28,3.28,0,0,0-1.27.82,4.07,4.07,0,0,0-1.16,3l0,7.44H626V35.54A8,8,0,0,0,624,36a3.58,3.58,0,0,0-1.26.79,4,4,0,0,0-1.15,3v3.12h-17.5V37.46a9,9,0,0,0-.78-3.71,11.39,11.39,0,0,0-2-3.18,12.3,12.3,0,0,0-3.25-2,9.26,9.26,0,0,0-3.66-.72,9.68,9.68,0,0,0-3.78.72,12.46,12.46,0,0,0-3.25,2,11.13,11.13,0,0,0-2,3.15,9.22,9.22,0,0,0-.74,3.74,11,11,0,0,0,.36,2.76,11.19,11.19,0,0,0,1.36,2.7h-3.92l-1.13-.51-1.38-.63,0,0a3.38,3.38,0,0,1-1-.48,8.72,8.72,0,0,1-1.16-1.82,4.9,4.9,0,0,1-.44-2V32a3.87,3.87,0,0,0-1.25-3h0a4.27,4.27,0,0,0-1.23-.88,3.8,3.8,0,0,0-1.58-.39h-5.43a7.27,7.27,0,0,0-3.06.64,9.86,9.86,0,0,0-2.46,1.66,7.64,7.64,0,0,0-1.61,2.42,8,8,0,0,0-.53,2.86v3.32a3.52,3.52,0,0,1-.34,1.54,9,9,0,0,1-.88,1.48,4.28,4.28,0,0,1-3,1.22h-5.07a3.91,3.91,0,0,1-1.74-.49,7.66,7.66,0,0,1-1.67-1.15,12.27,12.27,0,0,1-1.17-1.88,4.54,4.54,0,0,1-.53-2V32a4.1,4.1,0,0,0-.31-1.68,4.35,4.35,0,0,0-.9-1.29,6.94,6.94,0,0,0-1.29-.87,5.38,5.38,0,0,0-2-.52v9.73a9,9,0,0,0,.8,3.77,9.76,9.76,0,0,0,2.25,3.22h0a9.16,9.16,0,0,0,3,2,9.65,9.65,0,0,0,3.6.74h6a7.17,7.17,0,0,0,5.41-2.2,7.07,7.07,0,0,0,1.69-2.43,7.74,7.74,0,0,0,.6-3V36.18a4.38,4.38,0,0,1,1.22-2.94A4.27,4.27,0,0,1,567,32.3a4.69,4.69,0,0,1,1.68-.28h4.17v5.37a11.58,11.58,0,0,0,.63,3.81,8.36,8.36,0,0,0,1.89,3,12.84,12.84,0,0,0,3.17,1.95,11.15,11.15,0,0,0,3.31.84v.07H714.16a10.13,10.13,0,0,0,3.88-.69,9.74,9.74,0,0,0,3.11-2,8.6,8.6,0,0,0,2.11-3.18,10.68,10.68,0,0,0,.69-3.8A9.49,9.49,0,0,0,721.15,30.64ZM599.64,42.92h-5.32a4.27,4.27,0,0,1-2-.45,6.34,6.34,0,0,1-1.7-1.25v0a8.48,8.48,0,0,1-1.31-1.8,4.83,4.83,0,0,1-.46-2,4.29,4.29,0,0,1,.51-2,6.88,6.88,0,0,1,1.26-1.75,4.85,4.85,0,0,1,7.24,0,6.88,6.88,0,0,1,1.26,1.75,4.49,4.49,0,0,1,.47,2Zm119.47-3.46a12,12,0,0,1-1.07,1.9,6.92,6.92,0,0,1-1.79,1.13,5.12,5.12,0,0,1-2,.43H709V37.46a4.49,4.49,0,0,1,.46-2,9.37,9.37,0,0,1,1.1-1.82,7,7,0,0,1,1.71-1.13,4.58,4.58,0,0,1,1.93-.46,5.09,5.09,0,0,1,2,.43A6.2,6.2,0,0,1,718,33.73v0a6.34,6.34,0,0,1,1.08,1.72,4.78,4.78,0,0,1,0,4Z"/><path class="cls-4" d="M103.22,2.52V106H2.52V2.52h100.7M105.74,0H0V108.49H105.74V0Z"/><path class="cls-4" d="M16,11.4a33.28,33.28,0,0,0,8,7.23,36.72,36.72,0,0,0,14.62,5.62s4,.5,5.83.5c2.63,0,6.45-.46,6.45-.46C66.43,21.77,73.69,11.4,73.69,11.4Z"/><path class="cls-5" d="M16,11.4s7.63,10.34,17.86,10.34c.32,0-.3-.06,0,0,17.83,1.86,13-10.32,31.65-10.32Z"/><path class="cls-6" d="M82.19,20.56c-4,4.14-7.29,10-7.29,14.77V50.14H62.16A32.73,32.73,0,0,0,48.87,62.75h26V81.4c0,11.81,17.15,18,17.15,18V13A42.37,42.37,0,0,0,82.19,20.56Z"/><path class="cls-4" d="M30.67,50.26V35.34c0-6.45-5.44-13.42-10.5-17.91A43.35,43.35,0,0,0,13.65,13V99.37s17.16-6.16,17.16-18V62.75H42.22c0-.06,8.84-4.75,12.33-12.61Z"/><path class="cls-7" d="M13.65,13s17,9.55,17,22.33c0,.4-.05-.38-.05,0,0,22.51-16.95,16.28-16.95,39.6Z"/><path class="cls-8" d="M92.05,99.37s-18.9-6.57-17.21-21.1c0-.4.07-2.41.07-2.78,0-22.52,17.19-15,17.19-38.3V61.65Z"/></g></g></g></svg>