<svg xmlns="http://www.w3.org/2000/svg" width="26" height="32" viewBox="0 0 26 32">
  <g id="medical-clipboard" transform="translate(-3)">
    <path id="Path_5498" data-name="Path 5498" d="M19,16H17V14a1,1,0,0,0-2,0v2H13a1,1,0,0,0,0,2h2v2a1,1,0,0,0,2,0V18h2a1,1,0,0,0,0-2Z" fill="#fff"/>
    <path id="Path_5499" data-name="Path 5499" d="M28,0H24V4h0a.945.945,0,0,1,1,1V27a.945.945,0,0,1-1,1H8a.945.945,0,0,1-1-1V5A.945.945,0,0,1,8,4H8V0H4A.945.945,0,0,0,3,1V31a.945.945,0,0,0,1,1H28a.945.945,0,0,0,1-1V1A.945.945,0,0,0,28,0Z" fill="#fff"/>
    <path id="Path_5500" data-name="Path 5500" d="M10,1V6a.945.945,0,0,0,1,1h2.1a1.1,1.1,0,0,0,1-.6,1.989,1.989,0,0,1,3.8,0,.924.924,0,0,0,1,.6H21a.945.945,0,0,0,1-1V1a.945.945,0,0,0-1-1H11A.945.945,0,0,0,10,1Z" fill="#fff"/>
  </g>
</svg>
