<svg xmlns="http://www.w3.org/2000/svg" width="12.138" height="16.007" viewBox="0 0 12.138 16.007">
  <g id="nursee" transform="translate(-1.933 0.007)">
    <path id="Path_5471" data-name="Path 5471" d="M13.5,6.5V10A5.5,5.5,0,0,1,8,15.5H8A5.5,5.5,0,0,1,2.5,10V6.5" fill="none" stroke="#3b8bcb" stroke-linecap="round" stroke-linejoin="round" stroke-width="1"/>
    <path id="Path_5472" data-name="Path 5472" d="M13.4,11A16.108,16.108,0,0,0,8,9.5,16.108,16.108,0,0,0,2.6,11" fill="none" stroke="#3b8bcb" stroke-linecap="round" stroke-linejoin="round" stroke-width="1"/>
    <line id="Line_57" data-name="Line 57" x2="3" transform="translate(6.5 11.5)" fill="none" stroke="#3b8bcb" stroke-linecap="round" stroke-linejoin="round" stroke-width="1"/>
    <path id="Path_5473" data-name="Path 5473" d="M13.5,1.5A13.267,13.267,0,0,0,8,.5a13.267,13.267,0,0,0-5.5,1v5A13.267,13.267,0,0,1,8,5.5a13.267,13.267,0,0,1,5.5,1Z" fill="none" stroke="#3b8bcb" stroke-linecap="round" stroke-linejoin="round" stroke-width="1"/>
  </g>
</svg>
