<svg xmlns="http://www.w3.org/2000/svg" width="39.902" height="50.986" viewBox="0 0 39.902 50.986">
  <g id="pin" transform="translate(-3)">
    <path id="Path_5476" data-name="Path 5476" d="M22.951,0A19.838,19.838,0,0,0,3,19.951C3,31.7,20.734,49.656,21.4,50.321a2.143,2.143,0,0,0,3.1,0c.665-.665,18.4-18.621,18.4-30.37A19.838,19.838,0,0,0,22.951,0Zm0,26.6a6.532,6.532,0,0,1-6.65-6.65,6.532,6.532,0,0,1,6.65-6.65,6.532,6.532,0,0,1,6.65,6.65A6.532,6.532,0,0,1,22.951,26.6Z" fill="#3b8bcb"/>
  </g>
</svg>
