<svg xmlns="http://www.w3.org/2000/svg" width="47.17" height="38.33" viewBox="0 0 47.17 38.33">
  <g id="quote" transform="translate(0 -1.499)">
    <path id="Path_5016" data-name="Path 5016" d="M8.914,10.525c-3.494,4.367-4,8.769-2.971,11.848A9.691,9.691,0,0,1,18.5,23c3.316,3.1,3.6,8.544,1.486,12.071a9.7,9.7,0,0,1-8.394,4.754C3.65,39.829,0,32.828,0,24.973A24.758,24.758,0,0,1,3.9,11.267,27.448,27.448,0,0,1,15.674,1.5l1.411,2.748A20.65,20.65,0,0,0,8.914,10.525Zm25.851,0c-3.494,4.367-4,8.769-2.971,11.848a9.053,9.053,0,0,1,5.646-2.006c5.341,0,9.731,3.557,9.731,9.731a9.543,9.543,0,0,1-9.731,9.731c-7.938,0-11.588-7-11.588-14.857a24.758,24.758,0,0,1,3.9-13.705A27.448,27.448,0,0,1,41.524,1.5l1.411,2.748A20.651,20.651,0,0,0,34.764,10.525Z" transform="translate(0 0)" fill="#77b652"/>
  </g>
</svg>
