<svg xmlns="http://www.w3.org/2000/svg" width="30" height="31.964" viewBox="0 0 30 31.964">
  <g id="square-pin" transform="translate(-0.999 -0.036)">
    <path id="Path_5502" data-name="Path 5502" d="M30,32H2a1,1,0,0,1-.849-1.53l5-8a1,1,0,1,1,1.7,1.06L3.8,30H28.2l-4.044-6.47a1,1,0,1,1,1.7-1.06l5,8A1,1,0,0,1,30,32Z" fill="#fff"/>
    <path id="Path_5503" data-name="Path 5503" d="M16,.036C10.593.036,5,3.98,5,10.581,5,16.8,14.855,27.247,15.275,27.688a1,1,0,0,0,1.45,0C17.145,27.247,27,16.8,27,10.582,27,3.98,21.407.036,16,.036Zm0,15a4,4,0,1,1,4-4A4,4,0,0,1,16,15.036Z" fill="#fff"/>
  </g>
</svg>
